[img]http://img257.imageshack.us/img257/4642/posteryg.jpg[/img]
[code]
            The Eagle 2011 V2 TS XViD - IMAGiNE
********************************************************************************************************************

Ripper ...........:IMAGiNE                                         IMDB Rating.......:6.6/10                             
Video Codec.......:XVID                                            Release Date......:13/02/11
Audio Codec.......:MP3                                             Theatre Date......:11/02/11
Audio Bitrate.....:128                                             Runtime...........:1h 45mn
Subtitles.........:NIL                                             Language..........:ENGLISH
Resolution........:720  x 304                                      IMDb URL..........:http://www.imdb.com/title/tt1034389/
DETAILS:

Video
ID                               : 0
Format                           : MPEG-4 Visual
Format profile                   : Advanced Simple@L5
Format settings, BVOP            : Yes
Format settings, QPel            : No
Format settings, GMC             : No warppoints
Format settings, Matrix          : Default (MPEG)
Muxing mode                      : Packed bitstream
Codec ID                         : XVID
Codec ID/Hint                    : XviD
Duration                         : 1h 45mn
Bit rate                         : 1 731 Kbps
Width                            : 720 pixels
Height                           : 304 pixels
Display aspect ratio             : 2.35:1
Frame rate                       : 25.000 fps
Color space                      : YUV
Chroma subsampling               : 4:2:0
Bit depth                        : 8 bits
Scan type                        : Progressive
Bits/(Pixel*Frame)               : 0.316
Stream size                      : 1.28 GiB (93%)
Writing library                  : XviD 61

Audio
ID                               : 1
Format                           : MPEG Audio
Format version                   : Version 1
Format profile                   : Layer 3
Codec ID                         : 55
Codec ID/Hint                    : MP3
Duration                         : 1h 45mn
Bit rate mode                    : Constant
Bit rate                         : 128 Kbps
Channel(s)                       : 2 channels
Sampling rate                    : 44.1 KHz
Stream size                      : 96.9 MiB (7%)
Alignment                        : Split accross interleaves
Interleave, duration             : 40 ms (1.00 video frame)
Interleave, preload duration     : 500 ms


SOURCES:

VIDEO: relizlab... Thanks 
AUDIO: Thanks Matey 

NOTES:

IMAGiNE bringing you another release.......... The Eagle 2011....

Here we are with our encode of this movie for you all.. Now for the video we just made a script 
containing white balance, rgb eq,resize, sharpness, chroma, brightness, contrast ect.
With the audio it was just a case of muxing the audio of our V1 back to our encode...

Enjoy
[/code]
Screens:
[img]http://img29.imageshack.us/img29/3030/33994989.jpg[/img]
[img]http://img88.imageshack.us/img88/5466/64090187.jpg[/img]
[img]http://img814.imageshack.us/img814/9484/97654660.jpg[/img]
